# xmcd
# 
# Track frame offsets:
#     150
#     15255
#     37232
#     52467
#     78635
#     93120
#     123467
#     140470
#     153530
#     179855
#     197705
#     215287
#     231537
#     256652
#     278772
# 
# Disc length: 3959
# 
# Revision: 5
# Processed by: cddbd v1.5.2PL0 Copyright (c) Steve Scherf et al.
# Submitted via: fre:ac v1.0.27
# 
DISCID=dd0f750f
DTITLE=REO Speedwagon - Take It On The Run [The Best Of]
DYEAR=2000
DGENRE=Rock
TTITLE0=Keep on loving you
TTITLE1=Can't fight this feeling
TTITLE2=One lonely night
TTITLE3=Ridin' the storm out
TTITLE4=In your letter
TTITLE5=Golden country
TTITLE6=Don't let him go
TTITLE7=157 Riverside Avenue
TTITLE8=Lightning
TTITLE9=Keep pushin'
TTITLE10=Keep the fire burnin'
TTITLE11=Time for me to fly
TTITLE12=Roll with the changes
TTITLE13=Say you love me or say goodnight
TTITLE14=Take it on the run
EXTD=
EXTT0=
EXTT1=
EXTT2=
EXTT3=
EXTT4=
EXTT5=
EXTT6=
EXTT7=
EXTT8=
EXTT9=
EXTT10=
EXTT11=
EXTT12=
EXTT13=
EXTT14=
PLAYORDER=
